# xmcd
#
# Track frame offsets: 
#        150
#        13707
#        31965
#        48490
#        64923
#        78443
#        97039
#        111733
#        129143
#        148371
#        164152
#        181986
#        198130
#
# Disc length: 2847 seconds
#
# Revision: 0
# Processed by: cddbd v1.5.2PL0 Copyright (c) Steve Scherf et al.
# Submitted via: ExactAudioCopy v0.99pb5
#
DISCID=bd0b1d0d
DTITLE=Gary P.Nunn - Taking Texas To The Country
DYEAR=2010
DGENRE=Country
TTITLE0=Deja Vu
TTITLE1=The Girl Just Loves To Dance
TTITLE2=A Two-Step Away
TTITLE3=Denver
TTITLE4=Down To Louisiana
TTITLE5=Mexican Boulevard
TTITLE6=It's Not Love
TTITLE7=I'm Not That Kind Of Guy
TTITLE8=Lonesome Lone Star Blues
TTITLE9=The Likes Of Me
TTITLE10=One State Of Mind
TTITLE11=Taking Texas To The Country
TTITLE12=The Rest Of My Life
EXTD=
EXTT0=
EXTT1=
EXTT2=
EXTT3=
EXTT4=
EXTT5=
EXTT6=
EXTT7=
EXTT8=
EXTT9=
EXTT10=
EXTT11=
EXTT12=
PLAYORDER=
